<svg xmlns="http://www.w3.org/2000/svg" width="180" height="180" viewBox="0 0 180 180" fill="none">
  <defs>
    <linearGradient id="g" x1="0" y1="0" x2="180" y2="180" gradientUnits="userSpaceOnUse">
      <stop offset="0%" stop-color="#7c5cfc"/>
      <stop offset="50%" stop-color="#b44aff"/>
      <stop offset="100%" stop-color="#e040fb"/>
    </linearGradient>
  </defs>
  <rect width="180" height="180" rx="40" fill="url(#g)"/>
  <path d="M90 30l9 27L126 66l-27 9L90 102l-9-27L54 66l27-9L90 30z" fill="white" opacity="0.95"/>
  <path d="M126 100l5 13 13 5-13 5-5 13-5-13-13-5 13-5 5-13z" fill="white" opacity="0.7"/>
  <path d="M56 108l3.5 9.5 9.5 3.5-9.5 3.5L56 134l-3.5-9.5L43 121l9.5-3.5L56 108z" fill="white" opacity="0.5"/>
</svg>
