<svg xmlns="http://www.w3.org/2000/svg" width="32" height="32" viewBox="0 0 32 32" fill="none">
  <defs>
    <linearGradient id="g" x1="0" y1="0" x2="32" y2="32" gradientUnits="userSpaceOnUse">
      <stop offset="0%" stop-color="#7c5cfc"/>
      <stop offset="50%" stop-color="#b44aff"/>
      <stop offset="100%" stop-color="#e040fb"/>
    </linearGradient>
  </defs>
  <rect width="32" height="32" rx="8" fill="url(#g)"/>
  <path d="M16 6l1.5 4.5L22 12l-4.5 1.5L16 18l-1.5-4.5L10 12l4.5-1.5L16 6z" fill="white" opacity="0.95"/>
  <path d="M22 18l0.8 2.2L25 21l-2.2 0.8L22 24l-0.8-2.2L19 21l2.2-0.8L22 18z" fill="white" opacity="0.7"/>
  <path d="M10 19l0.6 1.6L12 21.2l-1.4 0.6L10 23.4l-0.6-1.6L8 21.2l1.4-0.6L10 19z" fill="white" opacity="0.5"/>
</svg>
